<?xml version="1.0" encoding="utf-8"?>
<!-- Generator: Adobe Illustrator 24.2.3, SVG Export Plug-In . SVG Version: 6.00 Build 0)  -->
<svg version="1.1" id="Capa_1" xmlns="http://www.w3.org/2000/svg" xmlns:xlink="http://www.w3.org/1999/xlink" x="0px" y="0px"
	 viewBox="0 0 512 512" style="enable-background:new 0 0 512 512;" xml:space="preserve">
<style type="text/css">
	.st0{fill:#9857FF;}
	.st1{fill:#2684FF;}
</style>
<g>
	<g>
		<path class="st0" d="M288.9,49.7c-2.6-2.7-6.3-4.4-10.1-4.6h0l-83.9-4.4c-5.2-0.3-9.6,3.7-9.8,8.9c-0.3,5.2,3.7,9.6,8.9,9.8
			l64.2,3.4L66.4,198.4c-4.2,3-5.2,8.8-2.2,13c3,4.2,8.8,5.2,13.1,2.2L271.4,76.3l-11,66c-0.9,5.1,2.6,9.9,7.7,10.8
			c5.1,0.9,9.9-2.6,10.8-7.7l13.9-82.9v0c0.1-0.8,0.2-1.7,0.2-2.5C293,56.1,291.5,52.4,288.9,49.7z"/>
	</g>
</g>
<g>
	<g>
		<path class="st1" d="M65.6,358.9H21.9c-8.7,0-15.6,7-15.6,15.6v43.7c0,8.7,7,15.6,15.6,15.6h43.7c8.7,0,15.6-6.9,15.6-15.6v-43.7
			C81.1,365.9,74.2,359,65.6,358.9z M62.4,415.1H25v-37.4h37.5C62.4,377.7,62.4,415.1,62.4,415.1z"/>
	</g>
</g>
<g>
	<g>
		<path class="st1" d="M171.7,296.5H128c-8.7,0-15.6,7-15.6,15.6v106.1c0,8.7,7,15.6,15.6,15.6h43.7c8.6,0,15.6-6.9,15.6-15.6V312.1
			C187.3,303.5,180.4,296.6,171.7,296.5z M168.6,415.1h-37.5v-99.9h37.5V415.1z"/>
	</g>
</g>
<g>
	<g>
		<path class="st1" d="M277.9,227.9h-43.7c-8.7,0-15.6,7-15.6,15.6v174.8c0,8.7,7,15.6,15.6,15.6h43.7c8.6,0,15.6-6.9,15.6-15.6
			V243.5C293.4,234.8,286.5,227.9,277.9,227.9z M274.7,415.1h-37.5V246.6h37.5V415.1z"/>
	</g>
</g>
<g>
	<g>
		<path class="st1" d="M384,153h-43.7c-8.7,0-15.6,7-15.6,15.6v249.7c0,8.7,7,15.6,15.6,15.6H384c8.6,0,15.6-6.9,15.6-15.6V168.6
			C399.6,159.9,392.6,153,384,153z M380.9,415.1h-37.5V246.6h37.5V415.1z M380.9,227.9h-37.5v-56.2h37.5V227.9z"/>
	</g>
</g>
<g>
	<g>
		<path class="st0" d="M490.1,46.9h-43.7c-8.7,0-15.6,7-15.6,15.6v355.8c0,8.7,7,15.6,15.6,15.6h43.7c8.6,0,15.6-6.9,15.6-15.6V62.5
			C505.7,53.8,498.8,46.9,490.1,46.9z M487,415.1h-37.5V171.7H487V415.1z M487,153h-37.5V65.6H487V153z"/>
	</g>
</g>
<g>
	<g>
		<path class="st1" d="M502.6,452.6H9.4c-5.2,0-9.4,4.2-9.4,9.4c0,5.2,4.2,9.4,9.4,9.4h493.3c5.2,0,9.4-4.2,9.4-9.4
			C512,456.8,507.8,452.6,502.6,452.6z"/>
	</g>
</g>
</svg>
