<svg xmlns="http://www.w3.org/2000/svg" width="1366" height="275.09" viewBox="0 0 1366 275.09"><defs><style>.cls-1{fill:#2684ff;}</style></defs><g id="Layer_2" data-name="Layer 2"><g id="Layer_1-2" data-name="Layer 1"><path id="foot-bg" class="cls-1" d="M0,275.09H1366V0a342,342,0,0,0-45.16,5.19c-28.46,5.2-57.68,9.9-82.55,25.27s-47.37,38.12-77.52,42.93c-20.6,3.28-41.37-2.78-61.85-6.72-74.13-14.22-153.41.38-217.61,40.07-19,11.79-37.95,26.1-60.26,28.22-14.42,1.38-28.74-2.57-42.92-5.55-85.41-17.92-177.8.25-250,49.19-10.15,6.87-20.25,14.48-32.17,17.35-15.49,3.74-31.58-1-47.11-4.62-79.21-18.31-165.32-4.71-235,37.12-20,12-39.6,26.52-62.69,29.41-27.26,3.42-52.47-9.74-78.92-13.41-23.89-3.31-48.1,2.11-72.16,4.06Z"/></g></g></svg>