<svg xmlns="http://www.w3.org/2000/svg" xmlns:xlink="http://www.w3.org/1999/xlink" width="1366.1" height="660.12" viewBox="0 0 1366.1 660.12"><defs><style>.cls-1{fill:url(#linear-gradient);}.cls-2{fill:#2684ff;}.cls-3{fill:url(#linear-gradient-2);}.cls-4{fill:#6e00ff;}.cls-5{fill:#ff5630;}.cls-6{fill:#fc0;}.cls-7{fill:#a0616a;}.cls-8{fill:#ccc;}.cls-9{fill:#6c63ff;}.cls-10{fill:#2f2e41;}.cls-11{fill:#e6e6e6;}.cls-12{fill:#3f3d56;}</style><linearGradient id="linear-gradient" x1="1266.68" y1="751.6" x2="38.75" y2="42.65" gradientTransform="translate(1370.18 730.44) rotate(180)" gradientUnits="userSpaceOnUse"><stop offset="0" stop-color="#39f"/><stop offset="0.14" stop-color="#388bff"/><stop offset="0.4" stop-color="#4467ff"/><stop offset="0.75" stop-color="#572eff"/><stop offset="1" stop-color="#60f"/></linearGradient><linearGradient id="linear-gradient-2" x1="-63.71" y1="457.66" x2="104.81" y2="554.96" gradientTransform="matrix(1, 0, 0, -1, 0, 698.44)" gradientUnits="userSpaceOnUse"><stop offset="0" stop-color="#39f"/><stop offset="0.09" stop-color="#3691ff" stop-opacity="0.95"/><stop offset="0.26" stop-color="#3d7bff" stop-opacity="0.8"/><stop offset="0.5" stop-color="#4958ff" stop-opacity="0.58"/><stop offset="0.78" stop-color="#5928ff" stop-opacity="0.26"/><stop offset="1" stop-color="#60f" stop-opacity="0"/></linearGradient></defs><g id="Layer_2" data-name="Layer 2"><g id="Layer_1-2" data-name="Layer 1"><g id="main-bg"><g id="Layer_2-2" data-name="Layer 2"><g id="Layer_1-2-2" data-name="Layer 1-2"><g id="Layer_2-2-2" data-name="Layer 2-2"><g id="Layer_1-2-2-2" data-name="Layer 1-2-2"><path id="grad-bg" class="cls-1" d="M1255.9,626.4c-28.1,0-55.3,5-82.3,11.8-23.4,5.9-48,19.4-72.6,19.6-16.7.1-32.4-6.8-48-12.4-74.1-26.7-160.1-24.6-232.4,5.8-10.3,4.3-20.8,9.3-32.1,8.9-9.5-.3-18.2-4.4-26.8-8-76.7-32.4-168.6-33.5-246.3-2.9-12.6,5-25.5,10.9-39.3,10.2-11.3-.5-21.6-5.3-31.9-9.5-73.9-30.2-161.6-30.8-236-1.6-12.4,4.8-24.9,10.6-38.4,10.4-8.3-.1-16.3-2.5-24.1-4.9-44.1-13.4-85.3-27.2-132.5-27.2q-6.6,0-13.2.3V177.3C55.1,27.3,522.1,181,592.1,0h774V644.7A336.49,336.49,0,0,0,1255.9,626.4Z"/></g></g></g></g><g id="Layer_2-3" data-name="Layer 2"><g id="Layer_1-2-3" data-name="Layer 1-2"><g id="Layer_2-2-3" data-name="Layer 2-2"><g id="Layer_1-2-2-3" data-name="Layer 1-2-2"><path id="blue-hexa" class="cls-2" d="M1102.32,547.06h-14.5a1.63,1.63,0,0,0-1.41.81l-7.25,12.56a1.64,1.64,0,0,0,0,1.63l7.25,12.56a1.59,1.59,0,0,0,1.41.81h14.5a1.65,1.65,0,0,0,1.41-.81l7.21-12.56a1.64,1.64,0,0,0,0-1.63l-7.21-12.56A1.69,1.69,0,0,0,1102.32,547.06Z"/></g></g></g></g><g id="Layer_2-4" data-name="Layer 2"><g id="Layer_1-2-4" data-name="Layer 1-2"><g id="Layer_2-2-4" data-name="Layer 2-2"><g id="Layer_1-2-2-4" data-name="Layer 1-2-2"><path id="half-grad-hex" class="cls-3" d="M.27,45.25A85.2,85.2,0,0,1,74,87.84l38.58,66.82a85.21,85.21,0,0,1,0,85.18L74,306.66A85.2,85.2,0,0,1,.27,349.25"/></g></g></g></g><g id="Layer_2-5" data-name="Layer 2"><g id="Layer_1-2-5" data-name="Layer 1-2"><g id="Layer_2-2-5" data-name="Layer 2-2"><g id="Layer_1-2-2-5" data-name="Layer 1-2-2"><circle id="purple-circle" class="cls-4" cx="975.05" cy="183.25" r="14"/></g></g></g></g><g id="Layer_2-6" data-name="Layer 2"><g id="Layer_1-2-6" data-name="Layer 1-2"><g id="Layer_2-2-6" data-name="Layer 2-2"><g id="Layer_1-2-2-6" data-name="Layer 1-2-2"><path id="red-hexa" class="cls-5" d="M259.53,166.77,237.45,154a9,9,0,0,0-8.92,0l-22.08,12.75A8.94,8.94,0,0,0,202,174.5V200a8.89,8.89,0,0,0,4.46,7.72l22.08,12.75a8.94,8.94,0,0,0,8.92,0l22.08-12.75A8.89,8.89,0,0,0,264,200V174.5A8.94,8.94,0,0,0,259.53,166.77Z"/></g></g></g></g><g id="Layer_2-7" data-name="Layer 2"><g id="Layer_1-2-7" data-name="Layer 1-2"><g id="Layer_2-2-7" data-name="Layer 2-2"><g id="Layer_1-2-2-7" data-name="Layer 1-2-2"><circle id="yellow-circle" class="cls-6" cx="1221.05" cy="384.25" r="20"/></g></g></g></g><g id="Layer_2-8" data-name="Layer 2"><g id="Layer_1-2-8" data-name="Layer 1-2"><g id="illustration"><path class="cls-7" d="M1104.85,457.34a6.09,6.09,0,0,0,1.19-8.53,5.89,5.89,0,0,0-.71-.79l8.72-19.77L1103,430.13l-6.58,18.49a6.12,6.12,0,0,0,8.46,8.73Z"/><path class="cls-8" d="M1127.57,359.53l-3.42-.69s-4.78,2-4.1,8.21-9.57,39-9.57,39l-9.23,27.34,13,2.74,8.55-31.45Z"/><path class="cls-9" d="M1143.05,464.11h-74.26a5.55,5.55,0,0,1-5.54-5.54V451.4a5.55,5.55,0,0,1,5.54-5.54h74.26a5.54,5.54,0,0,1,5.53,5.54v7.17A5.56,5.56,0,0,1,1143.05,464.11Z"/><path class="cls-10" d="M1125.05,545.4l14.45-5.33h0l3.36,9.1h0l-23.55,8.69h0a9.68,9.68,0,0,1,5.72-12.45Z"/><path class="cls-10" d="M1139.2,551.5h15.41v9.75H1129.5a9.7,9.7,0,0,1,9.65-9.75Z"/><path class="cls-10" d="M1117.32,427.89h0A42.14,42.14,0,0,0,1107,453.35l-2.63,49.06,23.24,41,13-6.83-15.72-30.77,9.57-29.4,26-20.51-2-29.39Z"/><polygon class="cls-10" points="1153.55 453.19 1160.39 455.92 1154.92 550.27 1139.19 548.22 1134.41 476.43 1153.55 453.19"/><circle class="cls-7" cx="1144.46" cy="332.25" r="16"/><path class="cls-8" d="M1168.25,362.6s-18.46-17.43-43.76-4.1c0,0-6.49,66-10.59,72.81,0,0,35.55-4.78,45.12-2.05,0,0,0-28.71,6.15-39.65S1168.25,362.6,1168.25,362.6Z"/><path class="cls-8" d="M1161.05,364.31l7.5-1.38a19.12,19.12,0,0,1,8.23,9.59c2.75,6.83,10.27,40.33,10.27,40.33l-29.4,29.4-6.15-8.89L1170,408.75l-9.57-20.5Z"/><path class="cls-10" d="M1158.15,340.81a1.37,1.37,0,0,0-.85-1.75h0a1.3,1.3,0,0,0-.34-.08,3.25,3.25,0,0,0-2.27,1.12,8.89,8.89,0,0,1-2,1.72,1.71,1.71,0,0,1-2.26-.41,3.05,3.05,0,0,1,.12-2.44,24.61,24.61,0,0,0,1.06-6.37,11.24,11.24,0,0,0-1.61-6.81c-1.72-2.43-4.8-3.35-7.71-3.28s-5.79,1-8.68,1.54c-1,.19-2.16.29-2.83-.48s-.45-2.15-.15-3.26c.78-2.88,1.62-5.86,3.43-8.18a12.31,12.31,0,0,1,7.86-4.43,19,19,0,0,1,8.77,1,23.49,23.49,0,0,1,11.53,8,19,19,0,0,1,3.63,14.07,17.41,17.41,0,0,1-6.44,11"/><path class="cls-11" d="M1052.23,462.25H704.91a5.86,5.86,0,0,1-5.86-5.86V193.11a5.88,5.88,0,0,1,5.86-5.86h347.32a5.87,5.87,0,0,1,5.82,5.86V456.37A5.86,5.86,0,0,1,1052.23,462.25ZM704.91,188.55a4.58,4.58,0,0,0-4.56,4.56V456.37a4.57,4.57,0,0,0,4.56,4.56h347.32a4.56,4.56,0,0,0,4.56-4.56V193.11a4.58,4.58,0,0,0-4.56-4.56Z"/><path class="cls-12" d="M1018.34,249.81H738.8a5.89,5.89,0,0,1-5.87-5.87v-20.2a5.87,5.87,0,0,1,5.87-5.86h279.54a5.87,5.87,0,0,1,5.87,5.86v20.2A5.89,5.89,0,0,1,1018.34,249.81ZM738.8,219.18a4.56,4.56,0,0,0-4.56,4.56h0v20.2a4.56,4.56,0,0,0,4.56,4.56h279.54a4.56,4.56,0,0,0,4.56-4.56v-20.2a4.56,4.56,0,0,0-4.56-4.56Z"/><path class="cls-12" d="M849.57,303.89H738.8a5.89,5.89,0,0,1-5.87-5.87v-20.2A5.88,5.88,0,0,1,738.8,272H849.57a5.88,5.88,0,0,1,5.87,5.86V298A5.89,5.89,0,0,1,849.57,303.89ZM738.8,273.25a4.57,4.57,0,0,0-4.56,4.56V298a4.57,4.57,0,0,0,4.56,4.57H849.57a4.57,4.57,0,0,0,4.56-4.57V277.82a4.57,4.57,0,0,0-4.56-4.57Z"/><path class="cls-12" d="M1018.34,303.89H907.57A5.89,5.89,0,0,1,901.7,298v-20.2a5.88,5.88,0,0,1,5.87-5.86h110.77a5.88,5.88,0,0,1,5.87,5.86V298A5.89,5.89,0,0,1,1018.34,303.89ZM907.57,273.25a4.58,4.58,0,0,0-4.52,4.57V298a4.57,4.57,0,0,0,4.56,4.57h110.73a4.57,4.57,0,0,0,4.56-4.57v-20.2a4.57,4.57,0,0,0-4.56-4.57Z"/><path class="cls-11" d="M1018.67,431.61H944.38a5.54,5.54,0,0,1-5.53-5.54V418.9a5.54,5.54,0,0,1,5.53-5.54h74.29a5.55,5.55,0,0,1,5.54,5.54v7.17A5.55,5.55,0,0,1,1018.67,431.61Z"/><path class="cls-11" d="M751.18,337.77a5.21,5.21,0,1,1,5.21-5.21,5.21,5.21,0,0,1-5.21,5.21Zm0-9.12a3.91,3.91,0,1,0,3.87,4v0a3.91,3.91,0,0,0-3.87-3.91Z"/><path class="cls-11" d="M751.18,354.72a5.22,5.22,0,1,1,5.21-5.23h0A5.22,5.22,0,0,1,751.18,354.72Zm0-9.13a3.91,3.91,0,1,0,3.87,4v0A3.91,3.91,0,0,0,751.18,345.59Z"/><path class="cls-12" d="M751.18,371.66a5.22,5.22,0,1,1,5.21-5.23h0A5.22,5.22,0,0,1,751.18,371.66Zm0-9.12a3.91,3.91,0,1,0,3.91,3.91h0a3.91,3.91,0,0,0-3.91-3.9Z"/><path class="cls-11" d="M776.59,328.33a4.24,4.24,0,0,0,0,8.47h60.6a4.24,4.24,0,1,0,.41-8.47h-61Z"/><path class="cls-11" d="M776.59,345.25a4.24,4.24,0,0,0,0,8.47h60.6a4.24,4.24,0,1,0,.41-8.47h-61Z"/><path class="cls-11" d="M776.59,362.25a4.24,4.24,0,0,0,0,8.47h60.6a4.24,4.24,0,1,0,.41-8.47h-61Z"/><path class="cls-11" d="M920.27,337.77a5.21,5.21,0,1,1,5.22-5.21,5.21,5.21,0,0,1-5.22,5.21Zm0-9.12a3.91,3.91,0,1,0,3.91,3.91,3.91,3.91,0,0,0-3.91-3.91Z"/><path class="cls-12" d="M920.27,354.72a5.22,5.22,0,1,1,5.22-5.22,5.22,5.22,0,0,1-5.22,5.22Zm0-9.13a3.91,3.91,0,1,0,3.91,3.91,3.91,3.91,0,0,0-3.91-3.91Z"/><path class="cls-11" d="M920.27,371.66a5.22,5.22,0,1,1,5.22-5.22,5.22,5.22,0,0,1-5.22,5.22Zm0-9.12a3.91,3.91,0,1,0,3.91,3.91h0a3.91,3.91,0,0,0-3.91-3.9Z"/><path class="cls-11" d="M920.27,388.6a5.22,5.22,0,1,1,5.22-5.22h0a5.21,5.21,0,0,1-5.21,5.21Zm0-9.12a3.91,3.91,0,1,0,3.91,3.91,3.91,3.91,0,0,0-3.91-3.91Z"/><path class="cls-11" d="M945.05,328.33a4.24,4.24,0,0,0-.41,8.47h61a4.24,4.24,0,0,0,0-8.47Z"/><path class="cls-11" d="M945.05,345.25a4.24,4.24,0,0,0-.41,8.47h61a4.24,4.24,0,0,0,0-8.47Z"/><path class="cls-11" d="M945.05,362.25a4.24,4.24,0,0,0-.41,8.47h61a4.24,4.24,0,0,0,0-8.47Z"/><path class="cls-11" d="M945.05,379.15a4.24,4.24,0,0,0-.41,8.47h61a4.24,4.24,0,0,0,0-8.47Z"/><path class="cls-11" d="M751.26,283.69a4.24,4.24,0,0,0,0,8.47h72.33a4.24,4.24,0,1,0,.41-8.47H751.26Z"/><path class="cls-4" d="M751.26,229.61a4.24,4.24,0,0,0,0,8.47h72.33a4.24,4.24,0,1,0,.41-8.47,2.81,2.81,0,0,0-.41,0Z"/><path class="cls-9" d="M835.49,285.25a.33.33,0,0,0-.33.33h0a.43.43,0,0,0,0,.16l2.76,4.79a.33.33,0,0,0,.45.12.34.34,0,0,0,.12-.12l2.76-4.79a.32.32,0,0,0-.12-.44H841Z"/><path class="cls-11" d="M920.05,283.69a4.24,4.24,0,0,0,0,8.47h72.33a4.24,4.24,0,0,0,.41-8.47H920.05Z"/><path class="cls-4" d="M1004.26,285.25a.33.33,0,0,0-.33.33.43.43,0,0,0,0,.16l2.77,4.79a.33.33,0,0,0,.45.12.32.32,0,0,0,.11-.12l2.79-4.84a.32.32,0,0,0-.12-.44h-5.67Z"/><circle class="cls-4" cx="920.27" cy="349.5" r="2.61"/><circle class="cls-4" cx="751.18" cy="366.44" r="2.61"/></g></g></g></g></g></g></svg>