<?xml version="1.0" encoding="utf-8"?>
<!-- Generator: Adobe Illustrator 24.2.3, SVG Export Plug-In . SVG Version: 6.00 Build 0)  -->
<svg version="1.1" id="Layer_5" xmlns="http://www.w3.org/2000/svg" xmlns:xlink="http://www.w3.org/1999/xlink" x="0px" y="0px"
	 viewBox="0 0 512 512" style="enable-background:new 0 0 512 512;" xml:space="preserve">
<style type="text/css">
	.st0{fill:#9857FF;}
	.st1{fill:#2684FF;}
</style>
<g>
	<path class="st0" d="M280,424h-48c-8.8,0-16,7.2-16,16v16c0,8.8,7.2,16,16,16h48c8.8,0,16-7.2,16-16v-16
		C296,431.2,288.8,424,280,424z M232,456v-16h48l0,16H232z"/>
	<path class="st0" d="M168,424h-16c-8.8,0-16,7.2-16,16v16c0,8.8,7.2,16,16,16h16c8.8,0,16-7.2,16-16v-16
		C184,431.2,176.8,424,168,424z M152,456v-16h16l0,16H152z"/>
	<path class="st0" d="M360,424h-16c-8.8,0-16,7.2-16,16v16c0,8.8,7.2,16,16,16h16c8.8,0,16-7.2,16-16v-16
		C376,431.2,368.8,424,360,424z M344,456v-16h16l0,16H344z"/>
	<circle class="st0" cx="256" cy="48" r="8"/>
	<circle class="st0" cx="368" cy="48" r="8"/>
	<path class="st0" d="M440,160h-71c-6.4,0-12.6-2.6-17-7.1C341.4,142,327.2,136,312,136c-19.5,0-36.6,10.2-46.9,28l-1.1,1.9V184
		h41.8l4,16H264v18.2l1.1,1.9c10.3,17.8,27.4,28,46.9,28c15.2,0,29.4-6,40-16.9c4.4-4.5,10.6-7.1,17-7.1h71c17.6,0,32-14.4,32-32
		S457.6,160,440,160z M440,208h-71c-10.7,0-21,4.4-28.4,11.9C333,227.7,322.8,232,312,232c-12.3,0-23-5.6-30.5-16h48.7l-12-48h-36.7
		c7.5-10.4,18.1-16,30.5-16c10.8,0,21,4.3,28.6,12.1c7.4,7.6,17.8,11.9,28.4,11.9h71c8.8,0,16,7.2,16,16S448.8,208,440,208z"/>
	<path class="st1" d="M480,104h-72V48c0-22.1-17.9-40-40-40H144c-22.1,0-40,17.9-40,40v168H82.3l-5.2,14.6c-1.3,0.5-2.5,1-3.8,1.6
		l-14-6.7l-41.9,41.9l6.7,14c-0.6,1.2-1.1,2.5-1.6,3.8L8,290.3v59.3l14.6,5.2c0.5,1.3,1,2.5,1.6,3.8l-6.7,14l41.9,41.9l14-6.7
		c1.2,0.6,2.5,1.1,3.8,1.6l5.2,14.6H104v40c0,22.1,17.9,40,40,40h224c22.1,0,40-17.9,40-40V280h72c13.2,0,24-10.8,24-24V128
		C504,114.8,493.2,104,480,104L480,104z M392,48v24H287.8c5.1-6.7,8.2-15,8.2-24V24h72C381.2,24,392,34.8,392,48z M232,48V24h48v24
		c0,13.2-10.8,24-24,24S232,61.2,232,48z M144,24h72v24c0,9,3.1,17.3,8.2,24H120V48C120,34.8,130.8,24,144,24z M89.7,396.9l-3.7-1.2
		c-3.1-1-6.1-2.3-9.2-3.8l-3.5-1.7l-10.7,5.1l-25.9-25.9l5.1-10.7l-1.7-3.5c-1.5-3-2.8-6.1-3.8-9.2l-1.2-3.7L24,338.3v-36.7
		l11.1-3.9l1.2-3.7c1-3.1,2.3-6.1,3.8-9.2l1.7-3.5l-5.1-10.7l25.9-25.9l10.7,5.1l3.5-1.7c3-1.5,6.1-2.8,9.2-3.8l3.7-1.3l3.9-11.1
		h36.7l3.9,11.1l3.7,1.3c3.1,1.1,6.2,2.3,9.2,3.8l3.5,1.7l10.7-5.1l25.9,25.9l-5.1,10.7l1.7,3.5c1.5,3,2.8,6.1,3.8,9.2l1.2,3.7
		l11.1,3.9v36.7l-11.1,3.9l-1.2,3.7c-1,3.1-2.3,6.1-3.8,9.2l-1.7,3.5l5.1,10.7l-25.9,25.9l-10.7-5.1l-3.5,1.7
		c-3,1.5-6.1,2.8-9.2,3.8l-3.7,1.2l-3.9,11.1H93.7L89.7,396.9z M368,488H144c-13.2,0-24-10.8-24-24v-40h21.7l5.2-14.6
		c1.3-0.5,2.5-1,3.8-1.6l14,6.7l6.5-6.5H392v56C392,477.2,381.2,488,368,488z M392,392H187.1l19.4-19.4l-6.7-14
		c0.6-1.2,1.1-2.5,1.6-3.8l14.6-5.1v-59.3l-14.6-5.2c-0.5-1.3-1-2.5-1.6-3.8l6.7-14l-41.9-41.9l-14,6.7c-1.2-0.6-2.5-1.1-3.8-1.6
		l-5.2-14.6H120V88h272v16H256c-13.2,0-24,10.8-24,24v128c0,13.2,10.8,24,24,24h24v12.7c0,10.6,8.7,19.3,19.3,19.3
		c5.1,0,10.1-2.1,13.7-5.7l26.3-26.3H392V392z M488,256c0,4.4-3.6,8-8,8H332.7l-31,31c-1.9,1.9-5.7,0.4-5.7-2.3V264h-40
		c-4.4,0-8-3.6-8-8V128c0-4.4,3.6-8,8-8h224c4.4,0,8,3.6,8,8L488,256z"/>
	<path class="st0" d="M176,320c0-35.3-28.7-64-64-64s-64,28.7-64,64s28.7,64,64,64S176,355.3,176,320z M112,368
		c-26.5,0-48-21.5-48-48s21.5-48,48-48s48,21.5,48,48S138.5,368,112,368z"/>
	<path class="st0" d="M112,288c-17.6,0-32,14.4-32,32s14.4,32,32,32s32-14.4,32-32S129.6,288,112,288z M112,336c-8.8,0-16-7.2-16-16
		s7.2-16,16-16s16,7.2,16,16S120.8,336,112,336z"/>
	<path class="st0" d="M136,104h16v16h-16V104z"/>
	<path class="st0" d="M168,104h48v16h-48V104z"/>
	<path class="st0" d="M136,136h80v16h-80V136z"/>
	<path class="st0" d="M136,168h80v16h-80V168z"/>
	<path class="st0" d="M232,360h144v16H232V360z"/>
	<path class="st0" d="M232,328h144v16H232V328z"/>
</g>
</svg>
