<?xml version="1.0" encoding="utf-8"?>
<!-- Generator: Adobe Illustrator 24.2.3, SVG Export Plug-In . SVG Version: 6.00 Build 0)  -->
<svg version="1.1" id="Layer_5" xmlns="http://www.w3.org/2000/svg" xmlns:xlink="http://www.w3.org/1999/xlink" x="0px" y="0px"
	 viewBox="0 0 512 512" style="enable-background:new 0 0 512 512;" xml:space="preserve">
<style type="text/css">
	.st0{fill:#2684FF;}
	.st1{fill:#9857FF;}
</style>
<path class="st0" d="M494.9,347.8l-34.1-34.1c12.2-21.9,19.2-47,19.2-73.7c0-83.8-68.2-152-152-152c-35,0-67.2,12-93,32h-88.9
	c13.3-11.7,21.8-28.9,21.8-48c0-35.3-28.7-64-64-64S40,36.7,40,72c0,20.1,9.4,38.1,24,49.9c-32,7.3-56,36-56,70.1v48
	c0,25.3,16.9,46.7,40,53.6V472c0,17.6,14.4,32,32,32c9.6,0,18.1-4.3,24-11.1c5.9,6.7,14.4,11.1,24,11.1c17.6,0,32-14.4,32-32v-12.7
	l67.3-67.3l-8-8l20.5-20.5c16.6,11.9,35.6,20.6,56.2,25v41.7l19.3,4.8l-10.2,17.1l42.8,42.8l17.1-10.3l4.8,19.3h60.5l4.8-19.3
	l17.1,10.3l42.8-42.8l-10.2-17.1l19.3-4.8v-60.5l-19.3-4.8L494.9,347.8z M464,240c0,75-61,136-136,136s-136-61-136-136
	s61-136,136-136S464,165,464,240z M440,400c0,22.1-17.9,40-40,40s-40-17.9-40-40c0-4.1,0.8-8.1,2-12c19.8-4.6,38.1-13,54.1-24.4
	C430.5,369.9,440,384.1,440,400L440,400z M176,340.7l-16,16V296h4c7.7,0,14.7-3.2,19.8-8.2c4.8,14.6,11.9,28.2,20.7,40.5L184,348.7
	L176,340.7z M176,240c0,1,0.1,1.9,0.1,2.9c-3.7-1.8-7.8-2.9-12.1-2.9h-4v-52c0-6.6,5.4-12,12-12h18.3C181.2,195.5,176,217.1,176,240
	z M111.7,197l-7.7,7.7l-7.7-7.7l5.9-61h3.5L111.7,197z M56,72c0-26.5,21.5-48,48-48s48,21.5,48,48s-21.5,48-48,48S56,98.5,56,72z
	 M80,136h6.2l-6.5,67l24.3,24.3l24.3-24.3l-6.5-67h95.6c-6.9,7.4-13.1,15.4-18.5,24h-27c-15.4,0-28,12.6-28,28v52H72
	c-4.4,0-8-3.6-8-8v-56H48v48H24v-32C24,161.1,49.1,136,80,136z M24,240h25.5c3.3,9.3,12.1,16,22.5,16h92c6.6,0,12,5.4,12,12
	s-5.4,12-12,12H64C41.9,280,24,262.1,24,240z M128,488c-8.8,0-16-7.2-16-16V328H96v144c0,8.8-7.2,16-16,16s-16-7.2-16-16V296h80v176
	C144,480.8,136.8,488,128,488z M160,436.7v-57.4l16-16l28.7,28.7L160,436.7z M208,372.7L195.3,360l19.2-19.2
	c4,4.5,8.2,8.7,12.7,12.7L208,372.7z M488,382.2v35.5l-15.6,3.9l-4.3,1.6l-3.7,9.1l10.4,17.3l-25.1,25.1l-17.3-10.4l-9.8,4
	l-4.9,19.6h-35.5l-3.9-15.6l-1.6-4.3l-9.1-3.7l-17.3,10.4l-25.1-25.1l10.4-17.3l-4-9.8l-19.6-4.9v-26.6c5.3,0.6,10.6,0.9,16,0.9
	c5.7,0,11.3-0.4,16.8-1c-0.5,3-0.8,5.9-0.8,9c0,30.9,25.1,56,56,56s56-25.1,56-56c0-19.6-10.3-37.2-26.4-47.3
	c8.3-7.5,15.9-15.9,22.4-25.1l22.8,22.8l-10.4,17.3l4,9.8L488,382.2z"/>
<path class="st1" d="M328,360c66.2,0,120-53.8,120-120s-53.8-120-120-120s-120,53.8-120,120S261.8,360,328,360z M288,280h16v61.1
	c-5.5-1.3-10.9-3-16-5.1V280z M272,327.5c-5.7-3.7-11.1-7.9-16-12.6V232h16V327.5z M320,343.6V168h16v175.6c-2.6,0.2-5.3,0.4-8,0.4
	S322.6,343.8,320,343.6z M352,248h16v88c-5.1,2.1-10.5,3.8-16,5.1V248z M400,314.9c-4.9,4.7-10.3,8.9-16,12.6V216h16V314.9z
	 M328,136c57.3,0,104,46.7,104,104c0,20.3-5.9,39.2-16,55.2V200h-48v32h-16v-80h-48v112h-16v-48h-48v79.2c-10.1-16-16-34.9-16-55.2
	C224,182.7,270.7,136,328,136L328,136z"/>
</svg>
