<svg xmlns="http://www.w3.org/2000/svg" width="496" height="504" viewBox="0 0 496 504"><defs><style>.cls-1{fill:#9857ff;}.cls-2{fill:#2684ff;}</style></defs><g id="Layer_2" data-name="Layer 2"><g id="Layer_1-2" data-name="Layer 1"><g id="repair"><path class="cls-1" d="M472,456a24,24,0,1,0,24,24A24,24,0,0,0,472,456Zm0,32a8,8,0,1,1,8-8A8,8,0,0,1,472,488Z"/><path class="cls-1" d="M48,24A24,24,0,1,0,24,48,24,24,0,0,0,48,24ZM16,24a8,8,0,1,1,8,8A8,8,0,0,1,16,24Z"/><path class="cls-2" d="M429.77,317,414,285.43a177.55,177.55,0,0,0,8.58-20.51L456,253.77V162.23l-33.45-11.15A175.81,175.81,0,0,0,414,130.57l15.82-31.63L365.06,34.21,333.43,50a175.81,175.81,0,0,0-20.51-8.58L301.77,8H210.23L199.08,41.45A175.81,175.81,0,0,0,178.57,50L146.94,34.21,82.21,98.94,98,130.57a175.81,175.81,0,0,0-8.58,20.51L56,162.23v91.53l33.45,11.15A176.43,176.43,0,0,0,98,285.26L87.66,304H40V464H96V440h60.69l24,24H224v8a32,32,0,0,0,64,0v-8h56a23.9,23.9,0,0,0,17.76-40,23.63,23.63,0,0,0,0-32,23.84,23.84,0,0,0,5.87-12.34ZM114.09,281.71a160.9,160.9,0,0,1-10.68-25.53l-1.23-3.88L72,242.23V173.76l30.18-10.06,1.23-3.89a158.36,158.36,0,0,1,10.67-25.52l1.88-3.63L101.68,102.1l48.41-48.41L178.66,68l3.62-1.88A159.72,159.72,0,0,1,207.8,55.41l3.9-1.22L221.77,24h68.47L300.3,54.18l3.89,1.23a158.36,158.36,0,0,1,25.52,10.67L333.34,68,361.9,53.68l48.41,48.41L396,130.66l1.88,3.62a159.72,159.72,0,0,1,10.68,25.52l1.22,3.9L440,173.77v68.47L409.82,252.3l-1.23,3.88a160.9,160.9,0,0,1-10.68,25.53L396,285.34l14.3,28.58-47.28,47.64c-.4-.54-.84-1.06-1.28-1.56a23.8,23.8,0,0,0-15.56-39.78A143.11,143.11,0,0,0,400,208c0-79.4-64.6-144-144-144S112,128.6,112,208a144.08,144.08,0,0,0,53.56,112H97.13l18.93-34.5ZM352,408a8,8,0,0,1-8,8H280a8,8,0,0,1,0-16h64A8,8,0,0,1,352,408ZM236.69,208h38.62L288,195.31V160a16,16,0,0,1,16,16v36.69L276.69,240H235.31L208,212.69V176a16,16,0,0,1,16-16v35.31ZM240,256h32v32H240Zm48-4.69,32-32V176a32,32,0,0,0-32-32H272v44.69L268.69,192H243.31L240,188.69V144H224a32,32,0,0,0-32,32v43.31l32,32V288H204.69l-.51.5a96,96,0,1,1,104.51-.5H288ZM368,208a112,112,0,1,0-175.46,92.15L181,311.67A128,128,0,0,1,128,208c0-70.57,57.43-128,128-128s128,57.43,128,128a127.24,127.24,0,0,1-48.38,100.2,23.87,23.87,0,0,0-8-14.24A111.27,111.27,0,0,0,368,208ZM344,336a8,8,0,0,1,0,16H280a8,8,0,0,1,0-16Zm-64,48a8,8,0,0,1,0-16h64a8,8,0,0,1,0,16ZM80,448H56V320H80Zm107.31,0-24-24H96V336h83.31l32-32H312a8,8,0,0,1,0,16H228.69l-34.35,34.34,11.32,11.32L224,347.31V448ZM256,488a16,16,0,0,1-16-16V336h17.47a23.6,23.6,0,0,0-1.47,8,23.86,23.86,0,0,0,6.24,16,23.63,23.63,0,0,0,0,32,23.63,23.63,0,0,0,0,32A23.78,23.78,0,0,0,272,462.53V472A16,16,0,0,1,256,488Zm88-40H280a8,8,0,0,1,0-16h64a8,8,0,0,1,0,16Z"/><path class="cls-1" d="M16,72H32V88H16Z"/><path class="cls-1" d="M16,112H32v16H16Z"/><path class="cls-1" d="M16,152H32v16H16Z"/><path class="cls-1" d="M464,336h16v16H464Z"/><path class="cls-1" d="M464,376h16v16H464Z"/><path class="cls-1" d="M464,416h16v16H464Z"/></g></g></g></svg>