<?xml version="1.0" encoding="utf-8"?>
<!-- Generator: Adobe Illustrator 24.2.3, SVG Export Plug-In . SVG Version: 6.00 Build 0)  -->
<svg version="1.1" id="Layer_1" xmlns="http://www.w3.org/2000/svg" xmlns:xlink="http://www.w3.org/1999/xlink" x="0px" y="0px"
	 viewBox="0 0 512 511.5" style="enable-background:new 0 0 512 511.5;" xml:space="preserve">
<style type="text/css">
	.st0{fill:#9857FF;}
	.st1{fill:#2684FF;}
</style>
<g id="Layer_2_1_">
	<g id="Layer_1-2">
		<g id="web-des">
			<path class="st0" d="M55.3,28.8c-12.2,0-22,9.8-22,22s9.8,22,22,22s22-9.8,22-22v0C77.3,38.6,67.4,28.8,55.3,28.8z M55.3,57.8
				c-3.9,0-7-3.1-7-7s3.1-7,7-7s7,3.1,7,7C62.3,54.6,59.1,57.8,55.3,57.8L55.3,57.8z"/>
			<path class="st0" d="M111.3,28.8c-12.2,0-22,9.8-22,22s9.8,22,22,22s22-9.8,22-22S123.4,28.8,111.3,28.8L111.3,28.8z M111.3,57.8
				c-3.9,0-7-3.1-7-7s3.1-7,7-7s7,3.1,7,7C118.2,54.6,115.1,57.8,111.3,57.8L111.3,57.8z"/>
			<path class="st0" d="M167.2,28.8c-12.2,0-22,9.8-22,22s9.8,22,22,22s22-9.8,22-22S179.4,28.8,167.2,28.8L167.2,28.8z M167.2,57.8
				c-3.9,0-7-3.1-7-7s3.1-7,7-7s7,3.1,7,7C174.2,54.6,171.1,57.8,167.2,57.8L167.2,57.8z"/>
			<path class="st1" d="M503.9,147.8c4.1,0,7.5-3.4,7.5-7.5L512,33c0-18.2-14.8-33-33-33H33C14.8,0,0,14.8,0,33v362.5
				c0,16.3,11.9,30.1,28,32.6c1.7,0.3,3.3,0.4,5,0.4h145.8v26.9h-22.6c-15.1,0-27.4,12.3-27.4,27.4V499c0,6.9,5.6,12.5,12.5,12.5
				H177c4.1,0,7.5-3.4,7.5-7.5s-3.4-7.5-7.5-7.5h-33.2v-13.7c0-6.8,5.5-12.4,12.4-12.4h199.1c6.8,0,12.4,5.5,12.4,12.4v13.7H223.5
				c-4.1,0-7.5,3.4-7.5,7.5c0,4.1,3.4,7.5,7.5,7.5h146.6c6.9,0,12.5-5.6,12.5-12.5v-16.2c0-15.1-12.3-27.4-27.4-27.4h-22.6v-26.9
				h145.8c1.7,0,3.3-0.1,5-0.4c16.1-2.5,28-16.3,28-32.6V186.8c0-4.1-3.4-7.5-7.5-7.5s-7.5,3.4-7.5,7.5v165.4H262.2V101.9h234.2
				v38.4C496.5,144.5,499.8,147.8,503.9,147.8z M15.5,101.9h231.7v249.7H15.5V101.9z M317.7,455.4H193.8v-26.9h123.9V455.4z
				 M496.5,367.1v28.4c0,9.2-7,17-16.2,17.9c-0.6,0.1-1.2,0.1-1.8,0.1H33c-0.6,0-1.2,0-1.8-0.1C22,412.5,15,404.8,15,395.5v-28.4
				H496.5z M254.7,86.9H15.5V33c0-9.9,8.1-18,18-18l0,0h444.9c9.9,0,18,8.1,18,18v54L254.7,86.9z"/>
			<path class="st0" d="M46.9,131.8h38c4.1,0,7.5-3.4,7.5-7.5s-3.4-7.5-7.5-7.5h-38c-4.1,0-7.5,3.4-7.5,7.5S42.8,131.8,46.9,131.8z"
				/>
			<path class="st0" d="M110.8,131.8h18c4.1,0,7.5-3.4,7.5-7.5s-3.4-7.5-7.5-7.5h-18c-4.1,0-7.5,3.4-7.5,7.5
				S106.7,131.8,110.8,131.8z"/>
			<path class="st0" d="M103.8,143.3h-25c-4.1,0-7.5,3.4-7.5,7.5s3.4,7.5,7.5,7.5h25c4.1,0,7.5-3.4,7.5-7.5S108,143.3,103.8,143.3z"
				/>
			<path class="st0" d="M221.8,170.7h-25c-4.1,0-7.5,3.4-7.5,7.5s3.4,7.5,7.5,7.5h25c4.1,0,7.5-3.4,7.5-7.5S225.9,170.7,221.8,170.7
				z"/>
			<path class="st0" d="M119.3,150.8c0,4.1,3.4,7.5,7.5,7.5h60c4.1,0,7.5-3.4,7.5-7.5s-3.4-7.5-7.5-7.5h-60
				C122.7,143.3,119.3,146.6,119.3,150.8C119.3,150.7,119.3,150.7,119.3,150.8z"/>
			<path class="st0" d="M95.4,178.1c0,4.1,3.4,7.5,7.5,7.5c0,0,0,0,0,0h13c4.1,0,7.5-3.4,7.5-7.5s-3.4-7.5-7.5-7.5h-13
				C98.7,170.6,95.4,174,95.4,178.1C95.4,178.1,95.4,178.1,95.4,178.1z"/>
			<path class="st0" d="M173.8,185.6c4.1,0,7.5-3.4,7.5-7.5s-3.4-7.5-7.5-7.5h-36c-4.1,0-7.5,3.4-7.5,7.5s3.4,7.5,7.5,7.5H173.8z"/>
			<path class="st0" d="M92.4,275.3c0-4.1-3.4-7.5-7.5-7.5h-38c-4.1,0-7.5,3.4-7.5,7.5s3.4,7.5,7.5,7.5l0,0h38
				C89,282.8,92.4,279.4,92.4,275.3C92.4,275.3,92.4,275.3,92.4,275.3z"/>
			<path class="st0" d="M110.8,267.8c-4.1,0-7.5,3.4-7.5,7.5s3.4,7.5,7.5,7.5h18c4.1,0,7.5-3.4,7.5-7.5s-3.4-7.5-7.5-7.5H110.8z"/>
			<path class="st0" d="M111.3,301.7c0-4.1-3.4-7.5-7.5-7.5c0,0,0,0,0,0h-25c-4.1,0-7.5,3.4-7.5,7.5s3.4,7.5,7.5,7.5h25
				C108,309.2,111.3,305.9,111.3,301.7C111.4,301.7,111.4,301.7,111.3,301.7z"/>
			<path class="st0" d="M115.8,321.6h-13c-4.1,0-7.5,3.4-7.5,7.5s3.4,7.5,7.5,7.5h13c4.1,0,7.5-3.4,7.5-7.5S120,321.6,115.8,321.6z"
				/>
			<path class="st0" d="M221.8,321.6h-25c-4.1,0-7.5,3.4-7.5,7.5s3.4,7.5,7.5,7.5h25c4.1,0,7.5-3.4,7.5-7.5S225.9,321.6,221.8,321.6
				z"/>
			<path class="st0" d="M194.3,301.7c0-4.1-3.4-7.5-7.5-7.5h-59.9c-4.1,0-7.5,3.4-7.5,7.5s3.4,7.5,7.5,7.5l0,0h60
				C191,309.2,194.3,305.8,194.3,301.7z"/>
			<path class="st0" d="M173.8,321.6h-36c-4.1,0-7.5,3.4-7.5,7.5s3.4,7.5,7.5,7.5h36c4.1,0,7.5-3.4,7.5-7.5S177.9,321.6,173.8,321.6
				z"/>
			<path class="st0" d="M46.9,220h21c4.1,0,7.5-3.4,7.5-7.5s-3.4-7.5-7.5-7.5h-21c-4.1,0-7.5,3.4-7.5,7.5S42.8,220,46.9,220z"/>
			<path class="st0" d="M173.3,212.5c0-4.1-3.4-7.5-7.5-7.5H88.9c-4.1,0-7.5,3.4-7.5,7.5s3.4,7.5,7.5,7.5h76.9
				C169.9,220,173.3,216.6,173.3,212.5C173.3,212.5,173.3,212.5,173.3,212.5z"/>
			<path class="st0" d="M159.3,238.9c0-4.1-3.4-7.5-7.5-7.5c0,0,0,0,0,0H78.9c-4.1,0-7.5,3.4-7.5,7.5s3.4,7.5,7.5,7.5h72.9
				C155.9,246.4,159.3,243.1,159.3,238.9C159.3,238.9,159.3,238.9,159.3,238.9z"/>
			<path class="st0" d="M172.8,246.4h14c4.1,0,7.5-3.4,7.5-7.5s-3.4-7.5-7.5-7.5h-14c-4.1,0-7.5,3.4-7.5,7.5
				S168.6,246.4,172.8,246.4z"/>
			<path class="st0" d="M343,289.6h-48c-4.1,0-7.5,3.4-7.5,7.5s3.4,7.5,7.5,7.5h48c4.1,0,7.5-3.4,7.5-7.5S347.1,289.6,343,289.6z"/>
			<path class="st0" d="M464.9,289.6H370c-4.1,0-7.5,3.4-7.5,7.5s3.4,7.5,7.5,7.5h94.9c4.1,0,7.5-3.4,7.5-7.5
				C472.4,293,469.1,289.6,464.9,289.6L464.9,289.6z"/>
			<path class="st0" d="M343,318.6h-48c-4.1,0-7.5,3.4-7.5,7.5s3.4,7.5,7.5,7.5h48c4.1,0,7.5-3.4,7.5-7.5S347.1,318.6,343,318.6z"/>
			<path class="st0" d="M464.9,318.6H370c-4.1,0-7.5,3.4-7.5,7.5s3.4,7.5,7.5,7.5h94.9c4.1,0,7.5-3.4,7.5-7.5
				S469.1,318.6,464.9,318.6L464.9,318.6L464.9,318.6z"/>
			<path class="st0" d="M472.6,136.2c0-10.7-8.7-19.3-19.4-19.4H306.7c-10.7,0-19.3,8.7-19.4,19.4v101.5l0,0v17.8
				c0,10.7,8.7,19.4,19.4,19.4h146.6c10.7,0,19.4-8.7,19.4-19.4V136.2z M457.6,255.4c0,2.4-2,4.4-4.4,4.4H306.7
				c-2.4,0-4.4-2-4.4-4.4v-14.6l54.9-54.9l37.9,42.7c2.7,3.1,7.5,3.4,10.6,0.6c3.1-2.7,3.4-7.5,0.6-10.6l0,0l-3.4-3.9l16.9-16.9
				l37.8,42.7L457.6,255.4z M457.6,217.9l-28.8-32.5c-4.3-4.9-11.8-5.4-16.7-1c-0.2,0.2-0.4,0.3-0.5,0.5l-18.6,18.6l-26.7-30.1
				c-4.4-4.9-11.9-5.3-16.8-0.9c-0.1,0.1-0.3,0.3-0.4,0.4l-46.6,46.6v-83.4c0-2.4,2-4.4,4.4-4.4h146.5c2.4,0,4.4,2,4.4,4.4
				L457.6,217.9z"/>
		</g>
	</g>
</g>
</svg>
